# Blender v2.92.0 OBJ File: 'press.blend'
# www.blender.org
mtllib press.mtl
v -0.000000 0.500000 -0.000000
v 0.750000 0.500000 -1.500000
v -0.750000 0.500000 -1.500000
v -0.750000 0.500000 1.500000
v 0.750000 0.500000 1.500000
v 0.750000 0.570000 -1.500000
v -0.750000 0.570000 -1.500000
v -0.750000 0.570000 1.500000
v 0.750000 0.570000 1.500000
v -0.000000 -0.000000 0.000000
v 0.750000 -0.000000 -1.500000
v -0.750000 -0.000000 -1.500000
v -0.750000 0.000000 1.500000
v 0.750000 0.000000 1.500000
v 0.750000 0.500000 -1.500000
v -0.750000 0.500000 -1.500000
v -0.750000 0.500000 1.500000
v 0.750000 0.500000 1.500000
v -0.000000 5.900000 -2.300000
v -0.050000 5.899999 -2.250000
v -0.050000 5.899999 -2.350000
v 0.050000 5.899999 -2.350000
v 0.050000 5.900000 -2.250000
v -0.050000 7.000000 -2.250000
v -0.050000 7.000000 -2.350000
v 0.050000 7.000000 -2.350000
v 0.050000 7.000000 -2.250000
v -1.250000 5.900000 -0.000001
v -1.300000 5.900000 -0.050000
v -1.300000 5.900000 0.050000
v -1.200000 5.900000 0.050000
v -1.200000 5.900000 -0.050001
v -1.300000 7.000000 -0.050000
v -1.300000 7.000000 0.050000
v -1.200000 7.000000 0.049999
v -1.200000 7.000000 -0.050001
v -1.250000 5.900000 -2.300000
v -1.300000 5.900000 -2.250000
v -1.300000 5.899999 -2.350000
v -1.200000 5.899999 -2.350000
v -1.200000 5.900000 -2.250000
v -1.300000 7.000000 -2.250000
v -1.300000 7.000000 -2.350000
v -1.200000 7.000000 -2.350000
v -1.200000 7.000000 -2.250000
v 1.250000 5.900000 -2.300000
v 1.300000 5.900000 -2.250001
v 1.300000 5.900000 -2.350001
v 1.200000 5.900000 -2.350001
v 1.200000 5.900000 -2.250001
v 1.300000 7.000000 -2.250000
v 1.300000 7.000000 -2.350001
v 1.200000 7.000000 -2.350001
v 1.200000 7.000000 -2.250000
v 0.000000 4.260000 -1.000000
v -0.000000 4.260000 -1.500000
v 0.250000 4.260000 -1.433013
v 0.433013 4.260000 -1.250000
v 0.500000 4.260000 -1.000000
v 0.433013 4.260000 -0.750000
v 0.250000 4.260000 -0.566987
v 0.000000 4.260000 -0.500000
v -0.250000 4.260000 -0.566987
v -0.433013 4.260000 -0.750000
v -0.500000 4.260000 -1.000000
v -0.433013 4.260000 -1.250000
v -0.250000 4.260000 -1.433013
v 0.000000 3.560000 -1.500000
v 0.250000 3.560000 -1.433013
v 0.433013 3.560000 -1.250000
v 0.500000 3.560000 -1.000000
v 0.433013 3.560000 -0.750000
v 0.250000 3.560000 -0.566987
v 0.000000 3.560000 -0.500000
v -0.250000 3.560000 -0.566987
v -0.433013 3.560000 -0.750000
v -0.500000 3.560000 -1.000000
v -0.433013 3.560000 -1.250000
v -0.250000 3.560000 -1.433013
v 1.050000 -0.000000 -2.000000
v 1.300000 -0.000000 -2.350000
v 0.800000 0.000000 -2.350000
v 0.800000 0.000000 -1.650000
v 1.300000 -0.000000 -1.650000
v 1.300000 3.800000 -2.350000
v 0.800000 3.800000 -2.350000
v 0.800000 3.800000 -1.650000
v 1.300000 3.800000 -1.650001
v 1.050000 0.000000 2.000000
v 1.300000 0.000000 2.350000
v 0.800000 0.000000 2.350000
v 0.800000 0.000000 1.650000
v 1.300000 0.000000 1.650000
v 1.300000 3.800000 2.350000
v 0.800000 3.800000 2.350000
v 0.800000 3.800000 1.649999
v 1.300000 3.800000 1.649999
v -1.050000 0.000000 2.000000
v -1.300000 0.000000 2.350000
v -0.800000 -0.000000 2.350000
v -0.800000 -0.000000 1.650000
v -1.300000 0.000000 1.650000
v -1.300000 3.800000 2.349999
v -0.800000 3.800000 2.349999
v -0.800000 3.800000 1.649999
v -1.300000 3.800000 1.649999
v -1.050000 -0.000000 -2.000000
v -1.300000 -0.000000 -2.350000
v -0.800000 -0.000000 -2.350000
v -0.800000 -0.000000 -1.650000
v -1.300000 -0.000000 -1.650000
v -1.300000 3.800000 -2.350001
v -0.800000 3.800000 -2.350001
v -0.800000 3.800000 -1.650001
v -1.300000 3.800000 -1.650001
v -0.000000 3.800000 -0.000000
v 1.300002 3.799999 2.349999
v -1.299999 3.799999 2.350001
v -1.300002 3.800001 -2.350000
v 1.299999 3.800001 -2.350001
v 1.300002 5.899999 2.350000
v -1.299999 5.899999 2.350001
v -1.300002 5.900000 -2.349999
v 1.299999 5.900001 -2.350001
v -1.250000 5.900000 2.300000
v -1.300000 5.900000 2.250000
v -1.300000 5.900000 2.350000
v -1.200000 5.900000 2.350000
v -1.200000 5.900000 2.250000
v -1.300000 7.000001 2.250000
v -1.300000 7.000001 2.350000
v -1.200000 7.000001 2.349999
v -1.200000 7.000001 2.250000
v -0.000000 5.900000 2.300000
v -0.050000 5.900000 2.250000
v -0.050000 5.900000 2.350000
v 0.050000 5.900001 2.349999
v 0.050000 5.900001 2.249999
v -0.050000 7.000001 2.250000
v -0.050000 7.000000 2.349999
v 0.050000 7.000000 2.349999
v 0.050000 7.000001 2.250000
v 1.250000 5.900000 2.300000
v 1.300000 5.900000 2.250000
v 1.300000 5.900000 2.350000
v 1.200000 5.900000 2.350000
v 1.200000 5.900000 2.250000
v 1.300000 7.000000 2.250000
v 1.300000 7.000000 2.349999
v 1.200000 7.000000 2.350000
v 1.200000 7.000000 2.250000
v 1.250000 5.900000 -0.000000
v 1.300000 5.900000 -0.050001
v 1.300000 5.900000 0.050000
v 1.200000 5.900000 0.050000
v 1.200000 5.900000 -0.050001
v 1.300000 7.000000 -0.050001
v 1.300000 7.000000 0.049999
v 1.200000 7.000000 0.049999
v 1.200000 7.000000 -0.050001
v -1.250000 7.000000 -1.150001
v -1.300001 7.000001 -0.050000
v -1.200001 7.000000 -0.050000
v -1.199999 6.999999 -2.250001
v -1.299999 6.999999 -2.250001
v -1.300002 6.900001 -0.050000
v -1.200001 6.900001 -0.050000
v -1.199999 6.899999 -2.250001
v -1.299999 6.900001 -2.250001
v 1.250000 7.000000 -1.150001
v 1.300001 7.000000 -0.050000
v 1.200001 7.000000 -0.050000
v 1.199999 6.999999 -2.250000
v 1.299999 6.999999 -2.250000
v 1.300001 6.900000 -0.050000
v 1.200001 6.900000 -0.050000
v 1.199999 6.900001 -2.250000
v 1.299999 6.900001 -2.250000
v 1.250000 7.000000 1.150000
v 1.300001 7.000000 0.049999
v 1.200001 7.000001 0.049999
v 1.199999 7.000000 2.250000
v 1.299999 7.000000 2.250000
v 1.300001 6.900001 0.049999
v 1.200000 6.900001 0.049999
v 1.199999 6.900000 2.250000
v 1.299999 6.900000 2.250000
v -1.250000 7.000000 1.150000
v -1.300001 7.000000 0.049999
v -1.200001 7.000000 0.049999
v -1.199999 7.000001 2.250000
v -1.299999 7.000001 2.250000
v -1.300001 6.900000 0.049999
v -1.200001 6.900000 0.049999
v -1.199998 6.900001 2.250000
v -1.299999 6.900001 2.250000
v -0.625000 7.000000 2.299999
v -1.200000 7.000001 2.250000
v -1.200000 7.000001 2.349999
v -0.050000 7.000001 2.350000
v -0.050000 7.000000 2.250000
v -1.200000 6.900001 2.250000
v -1.200000 6.900001 2.349999
v -0.050000 6.900002 2.349999
v -0.050000 6.900001 2.250000
v -0.625000 7.000000 -2.300001
v -1.200000 7.000000 -2.250000
v -1.200000 7.000000 -2.350000
v -0.050000 7.000000 -2.350000
v -0.050000 7.000000 -2.250001
v -1.200000 6.900000 -2.250000
v -1.200000 6.900000 -2.350000
v -0.050000 6.899999 -2.350000
v -0.050000 6.900000 -2.250001
v 0.625000 7.000000 -2.300000
v 1.200000 7.000000 -2.250000
v 1.200000 7.000000 -2.350000
v 0.050000 7.000000 -2.350000
v 0.050000 7.000000 -2.250000
v 1.200000 6.900000 -2.250000
v 1.200000 6.900000 -2.350000
v 0.050000 6.900000 -2.350000
v 0.050000 6.899999 -2.250000
v 0.625000 7.000000 2.299999
v 1.200000 7.000000 2.250000
v 1.200000 7.000000 2.349999
v 0.050000 7.000000 2.349999
v 0.050000 7.000000 2.250000
v 1.200000 6.900000 2.250000
v 1.200000 6.900000 2.349999
v 0.050000 6.900001 2.349999
v 0.050000 6.900001 2.250000
v 0.000000 4.260000 1.000000
v -0.000000 4.260000 1.500000
v 0.250000 4.260000 1.433013
v 0.433013 4.260000 1.250000
v 0.500000 4.260000 1.000000
v 0.433013 4.260000 0.750000
v 0.250000 4.260000 0.566987
v 0.000000 4.260000 0.500000
v -0.250000 4.260000 0.566986
v -0.433013 4.260000 0.750000
v -0.500000 4.260001 1.000000
v -0.433013 4.260001 1.250000
v -0.250000 4.260000 1.433013
v -0.000000 3.560000 1.500000
v 0.250000 3.560000 1.433013
v 0.433013 3.560000 1.250000
v 0.500000 3.560000 1.000000
v 0.433013 3.560000 0.750000
v 0.250000 3.560000 0.566987
v -0.000000 3.560000 0.500000
v -0.250000 3.560000 0.566987
v -0.433013 3.560000 0.750000
v -0.500000 3.560001 1.000000
v -0.433013 3.560000 1.250000
v -0.250000 3.560000 1.433013
vn 0.0000 1.0000 -0.0000
vn 0.2588 -0.0000 0.9659
vn 0.7071 -0.0000 0.7071
vn 0.9659 -0.0000 0.2588
vn 0.9659 -0.0000 -0.2588
vn 0.7071 -0.0000 -0.7071
vn 0.2588 -0.0000 -0.9659
vn -0.2588 -0.0000 -0.9659
vn -0.7071 0.0000 -0.7071
vn -0.9659 0.0000 -0.2588
vn -0.9659 0.0000 0.2588
vn -0.7071 0.0000 0.7071
vn -0.2588 -0.0000 0.9659
vn 0.0000 -1.0000 -0.0000
vn 0.0000 0.0000 -1.0000
vn 1.0000 0.0000 0.0000
vn -0.0000 -0.0000 1.0000
vn -1.0000 0.0000 -0.0000
usemtl XXX.018
s off
f 234//1 235//1 236//1
f 234//1 236//1 237//1
f 234//1 237//1 238//1
f 234//1 238//1 239//1
f 234//1 239//1 240//1
f 234//1 240//1 241//1
f 234//1 241//1 242//1
f 234//1 242//1 243//1
f 234//1 243//1 244//1
f 234//1 244//1 245//1
f 235//2 234//2 246//2 247//2
f 236//3 235//3 247//3 248//3
f 237//4 236//4 248//4 249//4
f 238//5 237//5 249//5 250//5
f 239//6 238//6 250//6 251//6
f 240//7 239//7 251//7 252//7
f 241//8 240//8 252//8 253//8
f 242//9 241//9 253//9 254//9
f 243//10 242//10 254//10 255//10
f 244//11 243//11 255//11 256//11
f 245//12 244//12 256//12 257//12
f 234//13 245//13 257//13 246//13
f 257//14 256//14 255//14
f 257//14 255//14 254//14
f 257//14 254//14 253//14
f 257//14 253//14 252//14
f 257//14 252//14 251//14
f 257//14 251//14 250//14
f 257//14 250//14 249//14
f 257//14 249//14 248//14
f 257//14 248//14 247//14
f 257//14 247//14 246//14
usemtl XXX.024
f 2//14 5//14 4//14 3//14
f 3//15 7//15 6//15 2//15
f 6//16 9//16 5//16 2//16
f 9//17 8//17 4//17 5//17
f 8//18 7//18 3//18 4//18
f 8//1 9//1 6//1 7//1
usemtl XXX.023
f 11//14 14//14 13//14 12//14
f 12//15 16//15 15//15 11//15
f 15//16 18//16 14//16 11//16
f 18//17 17//17 13//17 14//17
f 17//18 16//18 12//18 13//18
f 17//1 18//1 15//1 16//1
usemtl XXX.022
f 21//14 22//14 23//14 20//14
f 20//18 24//18 25//18 21//18
f 20//17 23//17 27//17 24//17
f 23//16 22//16 26//16 27//16
f 22//15 21//15 25//15 26//15
f 25//1 24//1 27//1 26//1
usemtl XXX.021
f 29//14 32//14 31//14 30//14
f 30//18 34//18 33//18 29//18
f 33//15 36//15 32//15 29//15
f 36//16 35//16 31//16 32//16
f 35//17 34//17 30//17 31//17
f 35//1 36//1 33//1 34//1
usemtl XXX.020
f 39//14 40//14 41//14 38//14
f 38//18 42//18 43//18 39//18
f 38//17 41//17 45//17 42//17
f 41//16 40//16 44//16 45//16
f 40//15 39//15 43//15 44//15
f 43//1 42//1 45//1 44//1
usemtl XXX.019
f 47//14 50//14 49//14 48//14
f 48//16 52//16 51//16 47//16
f 51//17 54//17 50//17 47//17
f 54//18 53//18 49//18 50//18
f 53//15 52//15 48//15 49//15
f 53//1 54//1 51//1 52//1
usemtl XXX.017
f 67//1 66//1 65//1
f 67//1 65//1 64//1
f 67//1 64//1 63//1
f 67//1 63//1 62//1
f 67//1 62//1 61//1
f 67//1 61//1 60//1
f 67//1 60//1 59//1
f 67//1 59//1 58//1
f 67//1 58//1 57//1
f 67//1 57//1 56//1
f 69//7 68//7 56//7 57//7
f 70//6 69//6 57//6 58//6
f 71//5 70//5 58//5 59//5
f 72//4 71//4 59//4 60//4
f 73//3 72//3 60//3 61//3
f 74//2 73//2 61//2 62//2
f 75//13 74//13 62//13 63//13
f 76//12 75//12 63//12 64//12
f 77//11 76//11 64//11 65//11
f 78//10 77//10 65//10 66//10
f 79//9 78//9 66//9 67//9
f 68//8 79//8 67//8 56//8
f 68//14 69//14 70//14
f 68//14 70//14 71//14
f 68//14 71//14 72//14
f 68//14 72//14 73//14
f 68//14 73//14 74//14
f 68//14 74//14 75//14
f 68//14 75//14 76//14
f 68//14 76//14 77//14
f 68//14 77//14 78//14
f 68//14 78//14 79//14
usemtl XXX.016
f 81//14 84//14 83//14 82//14
f 82//15 86//15 85//15 81//15
f 85//16 88//16 84//16 81//16
f 88//17 87//17 83//17 84//17
f 87//18 86//18 82//18 83//18
f 87//1 88//1 85//1 86//1
usemtl XXX.015
f 91//14 92//14 93//14 90//14
f 90//17 94//17 95//17 91//17
f 90//16 93//16 97//16 94//16
f 93//15 92//15 96//15 97//15
f 92//18 91//18 95//18 96//18
f 95//1 94//1 97//1 96//1
usemtl XXX.014
f 99//14 102//14 101//14 100//14
f 100//17 104//17 103//17 99//17
f 103//18 106//18 102//18 99//18
f 106//15 105//15 101//15 102//15
f 105//16 104//16 100//16 101//16
f 105//1 106//1 103//1 104//1
usemtl XXX.013
f 109//14 110//14 111//14 108//14
f 108//15 112//15 113//15 109//15
f 108//18 111//18 115//18 112//18
f 111//17 110//17 114//17 115//17
f 110//16 109//16 113//16 114//16
f 113//1 112//1 115//1 114//1
usemtl XXX.012
f 117//14 118//14 119//14 120//14
f 117//17 121//17 122//17 118//17
f 118//18 122//18 123//18 119//18
f 119//15 123//15 124//15 120//15
f 120//16 124//16 121//16 117//16
f 124//1 123//1 122//1 121//1
usemtl XXX.011
f 126//14 129//14 128//14 127//14
f 127//18 131//18 130//18 126//18
f 130//15 133//15 129//15 126//15
f 133//16 132//16 128//16 129//16
f 132//17 131//17 127//17 128//17
f 132//1 133//1 130//1 131//1
usemtl XXX.010
f 135//14 138//14 137//14 136//14
f 136//18 140//18 139//18 135//18
f 139//15 142//15 138//15 135//15
f 142//16 141//16 137//16 138//16
f 141//17 140//17 136//17 137//17
f 141//1 142//1 139//1 140//1
usemtl XXX.009
f 145//14 146//14 147//14 144//14
f 144//16 148//16 149//16 145//16
f 144//15 147//15 151//15 148//15
f 147//18 146//18 150//18 151//18
f 146//17 145//17 149//17 150//17
f 149//1 148//1 151//1 150//1
usemtl XXX.008
f 154//14 155//14 156//14 153//14
f 153//16 157//16 158//16 154//16
f 153//15 156//15 160//15 157//15
f 156//18 155//18 159//18 160//18
f 155//17 154//17 158//17 159//17
f 158//1 157//1 160//1 159//1
usemtl XXX.007
f 162//1 163//1 164//1 165//1
f 162//17 166//17 167//17 163//17
f 163//16 167//16 168//16 164//16
f 164//15 168//15 169//15 165//15
f 165//18 169//18 166//18 162//18
f 169//14 168//14 167//14 166//14
usemtl XXX.006
f 174//1 173//1 172//1 171//1
f 172//17 176//17 175//17 171//17
f 173//18 177//18 176//18 172//18
f 174//15 178//15 177//15 173//15
f 171//16 175//16 178//16 174//16
f 175//14 176//14 177//14 178//14
usemtl XXX.005
f 180//1 181//1 182//1 183//1
f 180//15 184//15 185//15 181//15
f 181//18 185//18 186//18 182//18
f 182//17 186//17 187//17 183//17
f 183//16 187//16 184//16 180//16
f 187//14 186//14 185//14 184//14
usemtl XXX.004
f 192//1 191//1 190//1 189//1
f 190//15 194//15 193//15 189//15
f 191//16 195//16 194//16 190//16
f 192//17 196//17 195//17 191//17
f 189//18 193//18 196//18 192//18
f 193//14 194//14 195//14 196//14
usemtl XXX.003
f 198//1 199//1 200//1 201//1
f 198//18 202//18 203//18 199//18
f 199//17 203//17 204//17 200//17
f 200//16 204//16 205//16 201//16
f 201//15 205//15 202//15 198//15
f 205//14 204//14 203//14 202//14
usemtl XXX.002
f 210//1 209//1 208//1 207//1
f 208//18 212//18 211//18 207//18
f 209//15 213//15 212//15 208//15
f 210//16 214//16 213//16 209//16
f 207//17 211//17 214//17 210//17
f 211//14 212//14 213//14 214//14
usemtl XXX.001
f 216//1 217//1 218//1 219//1
f 216//16 220//16 221//16 217//16
f 217//15 221//15 222//15 218//15
f 218//18 222//18 223//18 219//18
f 219//17 223//17 220//17 216//17
f 223//14 222//14 221//14 220//14
usemtl XXX
f 228//1 227//1 226//1 225//1
f 226//16 230//16 229//16 225//16
f 227//17 231//17 230//17 226//17
f 228//18 232//18 231//18 227//18
f 225//15 229//15 232//15 228//15
f 229//14 230//14 231//14 232//14
