<svg xmlns="http://www.w3.org/2000/svg" xml:space="preserve" viewBox="0 0 1000 1000" height="1000" width="1000"><path d="m917 460 73-43-24-90-84-1c-12-25-25-48-41-70l42-73-66-66-73 42c-22-16-46-29-70-41l-1-84-90-24-43 73c-26-3-53-3-80 0l-43-73-90 24-1 84c-25 12-48 25-70 41l-73-42-66 66 42 73c-16 22-29 46-41 70l-84 1-24 90 73 43c-3 26-3 53 0 80l-73 43 24 90 84 1c12 25 25 48 41 70l-42 73 66 66 73-42c22 16 46 29 70 41l1 84 90 24 43-73c26 3 53 3 80 0l43 73 90-24 1-84c25-12 48-25 70-41l73 42 66-66-42-74c16-21 29-45 41-69l84-1 24-90-73-43c3-26 3-53 0-80z"/></svg>